<svg viewBox="0 0 400 300" version="1.1" xmlns="http://www.w3.org/2000/svg" xmlns:xlink="http://www.w3.org/1999/xlink" xml:space="preserve" xmlns:serif="http://www.serif.com/" style="fill-rule:evenodd;clip-rule:evenodd;stroke-linejoin:round;stroke-miterlimit:1.41421;"><rect x="0" y="0" width="400" height="300" style="fill:none;"></rect><path id="path0" d="M263.197 69.049 C 259.183 69.337,253.243 70.172,252.813 70.507 C 252.648 70.636,251.858 70.837,251.057 70.953 C 249.731 71.145,248.047 71.645,243.811 73.105 C 242.986 73.389,241.433 74.091,240.360 74.664 C 239.287 75.237,238.005 75.915,237.509 76.170 C 233.915 78.021,227.530 83.720,225.030 87.311 C 224.632 87.882,224.082 88.603,223.808 88.913 C 223.534 89.224,222.994 90.101,222.608 90.864 C 222.222 91.626,221.703 92.484,221.455 92.771 C 221.208 93.057,220.755 93.940,220.450 94.733 C 220.145 95.525,219.503 97.024,219.025 98.063 C 218.546 99.102,218.155 100.066,218.155 100.205 C 218.155 100.344,217.667 101.984,217.071 103.848 C 216.475 105.712,215.860 107.989,215.703 108.907 C 215.547 109.826,215.232 111.725,215.003 113.128 C 214.774 114.531,214.443 116.287,214.267 117.029 C 212.973 122.485,213.030 142.597,214.362 150.938 C 214.613 152.506,214.953 154.734,215.118 155.889 C 215.769 160.437,217.016 166.025,217.596 166.992 C 217.695 167.157,217.870 167.815,217.986 168.455 C 218.101 169.094,218.573 170.445,219.034 171.455 C 219.496 172.466,219.975 173.631,220.099 174.044 C 220.223 174.456,220.782 175.554,221.340 176.483 C 221.899 177.413,222.356 178.291,222.356 178.435 C 222.356 178.740,225.191 182.670,226.623 184.350 C 228.048 186.021,230.049 187.895,232.108 189.486 C 233.098 190.252,233.953 191.006,234.009 191.163 C 234.064 191.320,234.276 191.448,234.481 191.448 C 234.686 191.448,235.511 191.916,236.315 192.487 C 237.119 193.059,238.155 193.610,238.618 193.711 C 239.081 193.813,239.460 194.020,239.460 194.172 C 239.460 194.324,239.696 194.449,239.985 194.450 C 240.274 194.450,240.939 194.712,241.464 195.032 C 241.988 195.352,242.899 195.704,243.489 195.815 C 244.079 195.925,244.561 196.124,244.561 196.256 C 244.561 196.388,245.135 196.589,245.836 196.702 C 246.538 196.815,247.385 197.079,247.718 197.290 C 248.052 197.501,248.930 197.774,249.669 197.896 C 250.408 198.019,251.233 198.235,251.502 198.376 C 251.771 198.517,253.189 198.776,254.653 198.951 C 259.210 199.498,259.698 199.576,260.315 199.857 C 262.297 200.761,287.099 200.754,289.122 199.850 C 289.749 199.569,290.499 199.472,296.166 198.937 C 298.059 198.759,299.747 198.501,299.917 198.365 C 300.086 198.228,300.968 198.018,301.875 197.898 C 302.783 197.778,303.863 197.510,304.276 197.302 C 304.689 197.095,305.801 196.831,306.747 196.716 C 307.693 196.601,308.538 196.393,308.624 196.254 C 308.710 196.115,309.354 195.916,310.054 195.811 C 311.197 195.641,312.074 195.329,315.274 193.954 C 315.794 193.731,316.350 193.548,316.509 193.548 C 316.668 193.548,317.120 193.303,317.514 193.004 C 317.908 192.704,318.972 192.154,319.880 191.781 C 320.788 191.408,321.733 190.870,321.980 190.585 C 322.228 190.301,322.667 189.978,322.956 189.867 C 323.450 189.678,323.481 188.232,323.481 165.364 L 323.481 141.062 322.506 140.885 C 319.629 140.361,293.430 140.879,292.999 141.468 C 292.643 141.955,292.573 144.934,292.573 159.700 L 292.573 177.350 290.396 178.370 C 285.099 180.850,282.109 181.447,270.978 182.252 C 269.443 182.362,265.363 181.622,263.916 180.970 C 263.586 180.821,262.672 180.404,261.886 180.043 C 260.341 179.334,257.038 176.288,256.109 174.715 C 255.793 174.181,255.443 173.743,255.332 173.743 C 255.220 173.743,255.045 173.409,254.942 173.001 C 254.840 172.593,254.429 171.777,254.030 171.188 C 253.630 170.600,253.080 169.482,252.807 168.705 C 252.533 167.928,252.187 167.057,252.036 166.771 C 251.886 166.484,251.763 166.005,251.763 165.705 C 251.763 165.406,251.651 165.033,251.515 164.876 C 250.798 164.052,250.110 160.534,249.535 154.757 C 249.290 152.292,248.960 150.426,248.718 150.135 C 248.111 149.403,248.118 118.928,248.725 118.553 C 248.983 118.393,249.266 117.239,249.476 115.488 C 249.661 113.942,249.897 112.543,249.999 112.378 C 250.102 112.213,250.282 111.419,250.399 110.614 C 250.601 109.218,250.748 108.750,251.630 106.677 C 251.841 106.182,252.240 105.169,252.516 104.426 C 253.281 102.371,253.622 101.700,254.686 100.153 C 255.224 99.371,255.664 98.652,255.664 98.557 C 255.664 98.269,258.168 95.310,258.815 94.834 C 259.145 94.590,259.752 94.050,260.165 93.633 C 260.578 93.216,261.185 92.727,261.515 92.546 C 261.845 92.365,262.656 91.903,263.316 91.519 C 266.189 89.849,266.980 89.569,271.398 88.659 C 272.543 88.424,273.617 88.094,273.784 87.926 C 274.210 87.501,292.643 87.512,293.069 87.938 C 293.243 88.112,294.654 88.451,296.205 88.691 C 301.286 89.479,303.325 89.869,303.552 90.098 C 303.675 90.221,304.025 90.323,304.330 90.323 C 304.635 90.323,305.119 90.442,305.405 90.588 C 306.393 91.090,307.430 91.472,308.627 91.776 C 310.061 92.139,311.756 92.768,312.378 93.167 C 312.626 93.326,313.706 93.903,314.779 94.451 C 315.851 94.999,317.269 95.768,317.929 96.161 C 318.600 96.560,319.642 96.887,320.290 96.900 L 321.450 96.924 321.236 94.923 C 321.118 93.822,320.916 92.708,320.788 92.447 C 320.403 91.668,319.880 89.866,319.880 89.322 C 319.880 89.043,319.751 88.580,319.594 88.293 C 319.436 88.006,319.177 87.029,319.018 86.122 C 318.554 83.479,317.841 80.496,317.533 79.911 C 317.377 79.613,317.155 78.762,317.040 78.020 C 316.590 75.112,316.306 74.459,315.295 74.000 C 313.003 72.961,308.637 72.037,301.864 71.158 C 299.629 70.869,297.660 70.544,297.487 70.437 C 295.861 69.432,271.552 68.448,263.197 69.049 M74.890 69.489 C 74.073 70.306,74.180 198.801,74.999 199.239 C 76.048 199.801,96.780 199.651,97.353 199.078 C 97.777 198.655,97.826 194.562,97.838 158.643 C 97.849 124.958,97.914 118.845,98.252 119.730 C 98.472 120.308,98.828 121.253,99.041 121.830 C 99.254 122.408,99.804 123.606,100.261 124.492 C 100.719 125.378,101.179 126.491,101.282 126.964 C 101.386 127.438,101.596 127.902,101.749 127.996 C 101.901 128.090,102.026 128.411,102.026 128.709 C 102.026 129.008,102.296 129.595,102.626 130.014 C 102.956 130.434,103.226 130.938,103.226 131.135 C 103.226 131.499,103.720 132.734,104.725 134.884 C 105.033 135.544,105.586 136.827,105.952 137.734 C 106.319 138.642,107.053 140.330,107.585 141.485 C 108.116 142.641,108.653 143.923,108.777 144.336 C 108.902 144.749,109.459 146.052,110.016 147.233 C 110.572 148.414,111.028 149.464,111.028 149.567 C 111.028 149.670,111.483 150.730,112.040 151.922 C 112.597 153.113,113.135 154.426,113.234 154.839 C 113.334 155.251,113.712 156.062,114.074 156.639 C 114.436 157.217,115.099 158.738,115.548 160.020 C 115.996 161.301,116.498 162.517,116.662 162.720 C 116.827 162.924,117.327 164.036,117.774 165.191 C 118.221 166.347,118.978 168.080,119.458 169.043 C 119.938 170.006,120.330 170.905,120.330 171.039 C 120.330 171.174,120.870 172.426,121.530 173.822 C 122.191 175.217,122.731 176.555,122.731 176.794 C 122.731 177.034,122.929 177.492,123.171 177.812 C 123.414 178.132,123.616 178.614,123.621 178.883 C 123.627 179.152,123.818 179.527,124.048 179.717 C 124.277 179.908,124.614 180.659,124.798 181.387 C 124.981 182.115,125.266 182.794,125.431 182.896 C 125.596 182.998,125.731 183.325,125.731 183.623 C 125.731 183.921,125.984 184.487,126.292 184.881 C 126.601 185.274,126.949 186.034,127.066 186.568 C 127.182 187.103,127.403 187.617,127.555 187.711 C 127.707 187.805,127.832 188.073,127.832 188.307 C 127.832 188.540,128.305 189.702,128.882 190.889 C 129.460 192.076,129.932 193.203,129.932 193.393 C 129.932 193.582,130.473 194.800,131.133 196.099 C 131.793 197.398,132.333 198.633,132.333 198.845 C 132.333 200.503,133.952 201.939,135.329 201.502 C 135.937 201.309,136.174 200.901,137.506 197.749 C 137.821 197.007,138.193 196.181,138.334 195.914 C 138.475 195.647,138.748 194.837,138.940 194.113 C 139.133 193.390,139.462 192.596,139.671 192.348 C 139.881 192.101,140.374 190.953,140.767 189.797 C 141.161 188.642,141.720 187.375,142.009 186.981 C 142.299 186.588,142.536 186.022,142.536 185.724 C 142.536 185.426,142.656 185.107,142.802 185.017 C 142.949 184.926,143.156 184.479,143.262 184.024 C 143.368 183.568,143.738 182.588,144.085 181.845 C 144.432 181.103,144.886 180.090,145.093 179.595 C 145.300 179.100,145.687 178.184,145.953 177.559 C 146.219 176.935,146.437 176.220,146.437 175.972 C 146.437 175.723,146.695 175.154,147.012 174.707 C 147.328 174.259,147.890 172.948,148.261 171.793 C 148.632 170.638,149.116 169.479,149.336 169.219 C 149.557 168.958,149.738 168.621,149.739 168.468 C 149.740 168.316,149.938 167.815,150.178 167.354 C 150.419 166.893,150.703 166.049,150.810 165.479 C 150.917 164.908,151.092 164.441,151.198 164.441 C 151.387 164.441,151.714 163.728,152.642 161.290 C 152.893 160.630,153.475 159.280,153.934 158.290 C 154.393 157.299,154.863 156.152,154.978 155.739 C 155.219 154.873,155.797 153.512,156.819 151.404 C 157.215 150.588,157.539 149.684,157.539 149.396 C 157.539 149.108,157.674 148.789,157.839 148.687 C 158.005 148.585,158.143 148.273,158.146 147.994 C 158.150 147.715,158.417 147.149,158.740 146.737 C 159.062 146.324,159.330 145.784,159.335 145.536 C 159.340 145.289,159.545 144.699,159.792 144.227 C 160.038 143.754,160.240 143.239,160.240 143.083 C 160.240 142.927,160.591 142.030,161.020 141.092 C 162.469 137.918,162.641 137.495,162.642 137.089 C 162.642 136.866,162.900 136.263,163.214 135.748 C 163.528 135.232,164.125 133.882,164.541 132.747 C 164.957 131.612,165.639 129.986,166.057 129.135 C 166.475 128.284,166.901 127.204,167.006 126.734 C 167.110 126.265,167.673 124.869,168.258 123.631 C 169.316 121.393,169.664 120.590,169.947 119.730 C 170.028 119.482,170.106 137.201,170.119 159.104 C 170.142 198.158,170.154 198.935,170.723 199.239 C 171.349 199.574,200.918 199.697,201.776 199.368 C 202.601 199.051,202.491 69.767,201.665 69.325 C 201.274 69.116,195.591 69.038,184.510 69.090 L 167.941 69.167 167.409 70.068 C 166.548 71.523,165.341 74.055,165.341 74.404 C 165.341 74.582,165.209 74.961,165.046 75.248 C 164.527 76.165,162.641 80.384,162.641 80.627 C 162.641 80.756,162.317 81.539,161.920 82.366 C 160.799 84.709,160.304 85.901,160.080 86.800 C 159.966 87.255,159.757 87.699,159.615 87.787 C 159.272 87.999,158.252 90.326,158.001 91.471 C 157.891 91.972,157.607 92.543,157.370 92.739 C 157.133 92.936,156.935 93.249,156.929 93.435 C 156.923 93.621,156.658 94.314,156.339 94.974 C 156.020 95.634,155.755 96.337,155.749 96.536 C 155.744 96.735,155.349 97.558,154.873 98.366 C 154.397 99.173,153.914 100.158,153.799 100.554 C 153.518 101.526,152.824 103.141,152.119 104.467 C 151.799 105.067,151.538 105.717,151.538 105.911 C 151.538 106.105,151.054 107.302,150.463 108.571 C 149.872 109.840,149.201 111.283,148.973 111.778 C 148.745 112.273,148.472 113.044,148.368 113.491 C 148.264 113.938,147.989 114.461,147.758 114.653 C 147.526 114.845,147.337 115.134,147.337 115.295 C 147.337 115.601,147.271 115.756,145.265 120.208 C 144.589 121.708,144.036 123.028,144.036 123.142 C 144.036 123.255,143.563 124.304,142.986 125.473 C 142.408 126.641,141.935 127.722,141.935 127.873 C 141.935 128.025,141.471 129.128,140.903 130.325 C 140.335 131.522,139.711 132.902,139.517 133.392 C 139.272 134.009,139.116 134.145,139.010 133.833 C 138.926 133.586,138.213 132.033,137.425 130.383 C 136.637 128.732,135.896 127.057,135.778 126.661 C 135.661 126.265,135.190 125.305,134.732 124.529 C 134.275 123.753,133.810 122.707,133.700 122.206 C 133.590 121.705,133.117 120.692,132.649 119.954 C 132.182 119.216,131.702 118.169,131.582 117.628 C 131.463 117.086,130.978 115.984,130.503 115.179 C 130.029 114.375,129.549 113.348,129.436 112.897 C 129.174 111.849,127.901 109.305,127.522 109.071 C 127.362 108.972,127.232 108.634,127.232 108.319 C 127.232 108.003,126.979 107.235,126.669 106.611 C 125.743 104.741,124.335 101.664,123.748 100.225 C 123.445 99.482,123.118 98.807,123.022 98.725 C 122.926 98.642,122.666 98.102,122.445 97.524 C 122.225 96.947,121.509 95.326,120.854 93.923 C 120.199 92.521,119.493 90.968,119.286 90.473 C 118.699 89.073,118.258 88.113,117.976 87.622 C 117.834 87.374,117.513 86.699,117.262 86.122 C 116.423 84.184,116.135 83.574,115.845 83.121 C 115.457 82.514,114.756 80.814,114.339 79.469 C 114.151 78.863,113.802 78.205,113.563 78.007 C 113.324 77.808,113.128 77.471,113.128 77.257 C 113.128 77.043,112.940 76.486,112.711 76.018 C 111.071 72.681,110.128 70.591,110.128 70.296 C 110.128 70.107,109.827 69.741,109.461 69.484 C 108.445 68.773,75.602 68.777,74.890 69.489 " stroke="none" fill="#fcfcfc" fill-rule="evenodd"></path>


	

<path id="path1" d="M61.877 210.711 C 61.605 210.983,61.515 214.765,61.515 226.017 L 61.515 240.960 96.327 240.960 L 131.138 240.960 131.061 225.731 L 130.983 210.503 96.610 210.426 C 70.125 210.368,62.155 210.433,61.877 210.711 " stroke="none" fill="#ef8a04" fill-rule="evenodd"></path>


	

<path id="path2" d="M131.063 225.656 L 131.144 240.960 164.897 240.960 L 198.650 240.960 198.650 225.656 L 198.650 210.353 164.816 210.353 L 130.983 210.352 131.063 225.656 " stroke="none" fill="#ffe001" fill-rule="evenodd"></path>


	

<path id="path3" d="M198.850 210.553 C 198.740 210.663,198.650 217.549,198.650 225.856 L 198.650 240.960 233.458 240.960 L 268.267 240.960 268.267 226.128 C 268.267 213.044,268.211 211.240,267.796 210.824 C 267.303 210.332,199.338 210.064,198.850 210.553 " stroke="none" fill="#84cfef" fill-rule="evenodd"></path>


	

<path id="path4" d="M266.971 210.415 C 268.257 210.758,268.258 210.770,268.262 226.182 L 268.267 240.960 302.176 240.960 L 336.084 240.960 336.084 225.993 C 336.084 213.999,336.006 210.961,335.690 210.699 C 335.412 210.468,325.124 210.347,300.736 210.287 C 281.728 210.241,266.534 210.298,266.971 210.415 " stroke="none" fill="#5baf44" fill-rule="evenodd"></path>


	




	

<path style="fill:#4d4d4d;stroke-width:0.535714" d="m 133.52679,201.11682 c -0.51563,-0.29978 -0.9375,-0.77086 -0.9375,-1.04684 0,-0.51026 -2.64495,-6.76024 -10.98731,-25.96284 -2.56009,-5.89285 -5.31265,-12.28125 -6.1168,-14.19643 -8.04802,-19.16736 -16.879834,-39.02579 -17.253558,-38.79481 -0.255071,0.15764 -0.463765,17.62105 -0.463765,38.80758 0,37.80864 -0.01956,38.53144 -1.057912,39.08714 -0.667246,0.3571 -4.871108,0.51244 -11.383929,0.42064 L 75,199.28571 74.572704,178.92857 C 74.096067,156.22071 74.37885,70.085436 74.931853,69.532433 75.47647,68.987815 101.26722,68.7165 105.78158,69.207898 l 3.99586,0.434959 8.41761,18.482143 c 4.62969,10.165179 9.07852,19.92857 9.8863,21.69643 0.80778,1.76786 3.49414,7.67411 5.96971,13.125 2.47555,5.45089 4.69341,10.10678 4.92855,10.34643 0.23515,0.23965 1.45842,-1.93 2.71838,-4.82143 5.31509,-12.19737 10.12194,-23.1911 15.5328,-35.525001 3.16685,-7.21875 6.76536,-15.444102 7.9967,-18.27856 l 2.23878,-5.15356 12.51328,-0.389619 c 6.88231,-0.214291 14.54902,-0.220044 17.03715,-0.01278 l 4.52387,0.376836 0.34579,5.651466 c 0.44794,7.321139 0.45261,118.662978 0.005,121.927878 l -0.34092,2.48548 h -15.16342 c -11.54245,0 -15.26692,-0.15991 -15.59682,-0.66964 -0.23838,-0.36831 -0.55394,-18.26786 -0.70126,-39.77679 L 169.82143,120 l -1.7892,4.28571 c -0.98407,2.35715 -2.5948,6.21429 -3.57942,8.57143 -0.98462,2.35715 -4.58463,11.03572 -8.00002,19.28572 -3.41539,8.25 -7.03158,16.92857 -8.03597,19.28571 -1.00439,2.35714 -3.64779,8.74554 -5.87421,14.19643 -4.43234,10.85158 -6.71794,15.66702 -7.54261,15.89124 -0.29464,0.0801 -0.95759,-0.0996 -1.47321,-0.39942 z" id="path766"></path>


	

<path style="fill:#4d4d4d;stroke-width:0.535714" d="m 262.5,200.07163 c -7.85108,-0.99355 -11.33512,-1.69559 -15.93085,-3.21008 -18.30238,-6.03146 -27.34213,-17.62692 -31.31246,-40.16512 -1.12624,-6.39334 -1.41589,-10.06227 -1.63688,-20.73433 -0.24268,-11.71936 -0.15184,-13.67731 0.94447,-20.35714 2.72525,-16.604956 6.76423,-25.270161 15.73827,-33.764844 6.52533,-6.176763 13.24055,-9.412826 24.42959,-11.772617 3.80781,-0.803072 7.01022,-0.950022 19.55357,-0.89726 8.25,0.0347 16.80804,0.324939 19.01786,0.644968 17.23671,2.496244 21.73928,3.50993 22.72415,5.116004 0.38456,0.62712 1.24347,3.550932 1.90867,6.49736 0.66522,2.946429 1.66282,6.950098 2.2169,8.897043 0.55409,1.946945 1.00742,4.176856 1.00742,4.955357 0,1.989359 -1.51845,1.85686 -5.73344,-0.500298 -8.08681,-4.522405 -20.08285,-7.191387 -32.32249,-7.191387 -6.94882,0 -8.72632,0.183541 -12.75953,1.317525 -2.5773,0.72464 -5.78588,1.932257 -7.13017,2.683596 -6.25775,3.497522 -11.28356,11.653653 -13.47003,21.859813 -1.05307,4.91563 -1.17306,7.04661 -1.16815,20.74621 0.007,20.78427 1.30287,29.16563 5.82679,37.69962 2.16106,4.07666 6.44499,7.99698 10.09906,9.24189 5.06875,1.72688 16.73548,0.83451 23.44368,-1.79316 1.91518,-0.75019 3.78348,-1.60214 4.15178,-1.89319 0.51143,-0.40417 0.66965,-4.69455 0.66965,-18.159 0,-14.7279 0.1251,-17.67779 0.76003,-17.92144 0.41802,-0.16041 7.22829,-0.33365 15.13393,-0.38497 l 14.37389,-0.0933 0.13944,24.31191 c 0.15936,27.78648 0.79439,24.5962 -5.49658,27.6141 -9.84619,4.72341 -27.62853,7.87396 -43.64561,7.73283 -4.57527,-0.0403 -9.7651,-0.25634 -11.53296,-0.48007 z" id="path805"></path></svg>